<mxfile host="app.diagrams.net" agent="Mozilla/5.0 (X11; Ubuntu; Linux x86_64; rv:142.0) Gecko/20100101 Firefox/142.0" version="28.2.0">
  <diagram name="Page-1" id="XCabEsz14lC1qjqIhGBI">
    <mxGraphModel dx="1188" dy="688" grid="1" gridSize="10" guides="1" tooltips="1" connect="1" arrows="1" fold="1" page="1" pageScale="1" pageWidth="827" pageHeight="1169" math="0" shadow="0">
      <root>
        <mxCell id="0" />
        <mxCell id="1" parent="0" />
        <mxCell id="kzORlnROMPf1xW7KSkoE-11" value="&lt;div&gt;&amp;lt;&amp;lt;protocol&amp;gt;&amp;gt;&lt;/div&gt;&lt;div&gt;JDBC&lt;/div&gt;" style="edgeStyle=orthogonalEdgeStyle;rounded=0;orthogonalLoop=1;jettySize=auto;html=1;endArrow=none;endFill=0;" edge="1" parent="1" source="kzORlnROMPf1xW7KSkoE-3" target="kzORlnROMPf1xW7KSkoE-5">
          <mxGeometry relative="1" as="geometry" />
        </mxCell>
        <mxCell id="kzORlnROMPf1xW7KSkoE-12" value="" style="group" vertex="1" connectable="0" parent="1">
          <mxGeometry x="70" y="530" width="230" height="170" as="geometry" />
        </mxCell>
        <mxCell id="kzORlnROMPf1xW7KSkoE-5" value="&lt;div&gt;&amp;lt;&amp;lt;device&amp;gt;&amp;gt;&lt;/div&gt;&lt;div&gt;&lt;b&gt;Server 2&lt;/b&gt;&lt;/div&gt;" style="verticalAlign=top;align=center;shape=cube;size=10;direction=south;fontStyle=0;html=1;boundedLbl=1;spacingLeft=5;whiteSpace=wrap;" vertex="1" parent="kzORlnROMPf1xW7KSkoE-12">
          <mxGeometry width="230" height="170" as="geometry" />
        </mxCell>
        <mxCell id="kzORlnROMPf1xW7KSkoE-9" value="«component»&lt;br&gt;&lt;b&gt;Relational Database&lt;/b&gt;" style="html=1;dropTarget=0;whiteSpace=wrap;" vertex="1" parent="kzORlnROMPf1xW7KSkoE-12">
          <mxGeometry x="25" y="55" width="180" height="90" as="geometry" />
        </mxCell>
        <mxCell id="kzORlnROMPf1xW7KSkoE-10" value="" style="shape=module;jettyWidth=8;jettyHeight=4;" vertex="1" parent="kzORlnROMPf1xW7KSkoE-9">
          <mxGeometry x="1" width="20" height="20" relative="1" as="geometry">
            <mxPoint x="-27" y="7" as="offset" />
          </mxGeometry>
        </mxCell>
        <mxCell id="kzORlnROMPf1xW7KSkoE-13" value="" style="group" vertex="1" connectable="0" parent="1">
          <mxGeometry x="100" y="230" width="230" height="170" as="geometry" />
        </mxCell>
        <mxCell id="kzORlnROMPf1xW7KSkoE-1" value="&lt;div&gt;&amp;lt;&amp;lt;device&amp;gt;&amp;gt;&lt;/div&gt;&lt;div&gt;&lt;b&gt;Server 1&lt;/b&gt;&lt;/div&gt;" style="verticalAlign=top;align=center;shape=cube;size=10;direction=south;fontStyle=0;html=1;boundedLbl=1;spacingLeft=5;whiteSpace=wrap;" vertex="1" parent="kzORlnROMPf1xW7KSkoE-13">
          <mxGeometry x="-70" y="-100" width="300" height="270" as="geometry" />
        </mxCell>
        <mxCell id="kzORlnROMPf1xW7KSkoE-25" value="&lt;div&gt;&amp;lt;&amp;lt;executionEnvironment&amp;gt;&amp;gt;&lt;/div&gt;&lt;div&gt;&lt;b&gt;Docker container&lt;/b&gt;&lt;/div&gt;" style="verticalAlign=top;align=center;shape=cube;size=10;direction=south;fontStyle=0;html=1;boundedLbl=1;spacingLeft=5;whiteSpace=wrap;" vertex="1" parent="kzORlnROMPf1xW7KSkoE-13">
          <mxGeometry x="-45" y="-40" width="250" height="195" as="geometry" />
        </mxCell>
        <mxCell id="kzORlnROMPf1xW7KSkoE-3" value="«component»&lt;br&gt;&lt;b&gt;Backend server&lt;/b&gt;" style="html=1;dropTarget=0;whiteSpace=wrap;" vertex="1" parent="kzORlnROMPf1xW7KSkoE-13">
          <mxGeometry x="-10" y="30" width="180" height="90" as="geometry" />
        </mxCell>
        <mxCell id="kzORlnROMPf1xW7KSkoE-4" value="" style="shape=module;jettyWidth=8;jettyHeight=4;" vertex="1" parent="kzORlnROMPf1xW7KSkoE-3">
          <mxGeometry x="1" width="20" height="20" relative="1" as="geometry">
            <mxPoint x="-27" y="7" as="offset" />
          </mxGeometry>
        </mxCell>
        <mxCell id="kzORlnROMPf1xW7KSkoE-14" value="" style="group" vertex="1" connectable="0" parent="1">
          <mxGeometry x="490" y="180" width="270" height="370" as="geometry" />
        </mxCell>
        <mxCell id="kzORlnROMPf1xW7KSkoE-24" value="" style="group" vertex="1" connectable="0" parent="kzORlnROMPf1xW7KSkoE-14">
          <mxGeometry y="-90" width="260" height="360" as="geometry" />
        </mxCell>
        <mxCell id="kzORlnROMPf1xW7KSkoE-15" value="&lt;div&gt;&amp;lt;&amp;lt;device&amp;gt;&amp;gt;&lt;/div&gt;&lt;div&gt;&lt;b&gt;User Device&lt;/b&gt;&lt;/div&gt;" style="verticalAlign=top;align=center;shape=cube;size=10;direction=south;fontStyle=0;html=1;boundedLbl=1;spacingLeft=5;whiteSpace=wrap;" vertex="1" parent="kzORlnROMPf1xW7KSkoE-24">
          <mxGeometry width="260" height="360" as="geometry" />
        </mxCell>
        <mxCell id="kzORlnROMPf1xW7KSkoE-18" value="«component»&lt;br&gt;&lt;b&gt;Web App&lt;/b&gt;" style="html=1;dropTarget=0;whiteSpace=wrap;" vertex="1" parent="kzORlnROMPf1xW7KSkoE-24">
          <mxGeometry x="55" y="70" width="150" height="70" as="geometry" />
        </mxCell>
        <mxCell id="kzORlnROMPf1xW7KSkoE-19" value="" style="shape=module;jettyWidth=8;jettyHeight=4;" vertex="1" parent="kzORlnROMPf1xW7KSkoE-18">
          <mxGeometry x="1" width="20" height="20" relative="1" as="geometry">
            <mxPoint x="-27" y="7" as="offset" />
          </mxGeometry>
        </mxCell>
        <mxCell id="kzORlnROMPf1xW7KSkoE-20" value="&lt;div&gt;&amp;lt;&amp;lt;executionEnvironment&amp;gt;&amp;gt;&lt;/div&gt;&lt;div&gt;&lt;b&gt;Browser&lt;/b&gt;&lt;/div&gt;" style="verticalAlign=top;align=center;shape=cube;size=10;direction=south;fontStyle=0;html=1;boundedLbl=1;spacingLeft=5;whiteSpace=wrap;" vertex="1" parent="kzORlnROMPf1xW7KSkoE-24">
          <mxGeometry x="35" y="180" width="200" height="160" as="geometry" />
        </mxCell>
        <mxCell id="kzORlnROMPf1xW7KSkoE-21" value="&lt;div&gt;«component»&lt;b&gt;&lt;br&gt;&lt;/b&gt;&lt;/div&gt;&lt;div&gt;&lt;b&gt;Browser extension&lt;/b&gt;&lt;/div&gt;" style="html=1;dropTarget=0;whiteSpace=wrap;" vertex="1" parent="kzORlnROMPf1xW7KSkoE-24">
          <mxGeometry x="60" y="250" width="150" height="70" as="geometry" />
        </mxCell>
        <mxCell id="kzORlnROMPf1xW7KSkoE-22" value="" style="shape=module;jettyWidth=8;jettyHeight=4;" vertex="1" parent="kzORlnROMPf1xW7KSkoE-21">
          <mxGeometry x="1" width="20" height="20" relative="1" as="geometry">
            <mxPoint x="-27" y="7" as="offset" />
          </mxGeometry>
        </mxCell>
        <mxCell id="kzORlnROMPf1xW7KSkoE-23" value="&lt;div&gt;&amp;lt;&amp;lt;protocol&amp;gt;&amp;gt;&lt;/div&gt;&lt;div&gt;HTTPS&lt;/div&gt;" style="rounded=0;orthogonalLoop=1;jettySize=auto;html=1;endArrow=none;endFill=0;" edge="1" parent="1" source="kzORlnROMPf1xW7KSkoE-1" target="kzORlnROMPf1xW7KSkoE-15">
          <mxGeometry relative="1" as="geometry" />
        </mxCell>
      </root>
    </mxGraphModel>
  </diagram>
</mxfile>
